<svg xmlns="http://www.w3.org/2000/svg" viewBox="0 0 333334 199007" shape-rendering="geometricPrecision" text-rendering="geometricPrecision" image-rendering="optimizeQuality" fill-rule="evenodd" clip-rule="evenodd"><path d="M214088 83928h13199v20970l11418-20970h12113l-24422 42395s-2267 3556-5079 5437c-2310 1547-5151 1477-6019 1540-4824-42-10643-55-10643-55l2807-10106 4542-8s2079-212 2882-1237c765-977 1156-1954 1156-3387 0-2148-1954-34580-1954-34580zM76939 88116c-1837 4256-7533 3772-7533 3772l-6632-31 2421-9013s5933 22 8843 22c3115 0 4088 2502 2902 5249zm15073-6142c1129-8943-6741-11201-15250-11201H54402l-13199 48105h14208l4436-16333 7970 65s3289-191 3354 2898c69 3295-2442 9345-2280 13370h14596l-32-1281s-1213-322-1078-2026c56-709 839-2953 1864-5979 618-1334 1550-4499 1464-7076-107-3217-2126-4710-5037-5754 9074-2128 11342-14787 11343-14787zm3224 1954h12959l-5337 20533s-1331 4579 2952 4932c3384 280 5902-3758 6727-6493 1084-3592 5296-18973 5296-18973h13351l-10159 34950h-11657l1432-4993s-5947 7252-14783 6382c-7854-771-8531-6468-7170-13575 668-3489 6389-22763 6389-22763zm66557 4298c-1849 5158-6944 4550-6944 4550l-6956 2 2746-10220s4403 23 7311 23c3560 0 4852 2828 3843 5644zm14609-4776c1130-8944-5687-12678-14197-12678h-22359l-13198 48105h14208l3995-14831 11320 69s17530 742 20232-20665zm11945 28307c-2220 563-4912 869-5446-1148-1466-5527 11474-7145 11474-7145 88 5036-4325 7859-6029 8293zm19575-10116c1707-5814 3865-11319 2128-14370-2660-4670-7468-5080-14502-5080-7771 0-17365 1476-20492 11810h12937s1179-3892 6035-3647c4298 217 4063 3174 2479 4809-2778 2865-10450 1276-18947 4224-7424 2576-10022 12338-8409 16234 1563 3778 4474 4259 8401 4645 6307 620 11143-2897 13394-4961 0 2292 60 3572 60 3572h13614l-33-1281s-1213-322-1078-2026c98-1248 2450-7252 4412-13929z" fill="#382a8d"/><path fill="#1d8546" d="M267751 75852l-15239 53011 28524-26506z"/><path fill="#ec6b00" d="M257982 75852l-15239 53011 28525-26506z"/><path d="M286355 66228c-2896 0-5254 2357-5254 5254 0 2896 2357 5253 5254 5253 2896 0 5253-2357 5253-5253 0-2898-2357-5254-5253-5254zm-81 7409v-4095h817l968 2899c90 270 154 472 197 606 46-149 118-368 218-657l980-2848h728v4095h-522v-3428l-1190 3428h-488l-1185-3486v3486h-523zm-2721 0v-3611h-1348v-483h3245v483h-1354v3611h-543zm2802 3618c-3185 0-5774-2590-5774-5774s2590-5775 5774-5775c3183 0 5774 2591 5774 5775 0 3183-2591 5774-5774 5774z"/><path d="M31367 0h270601c8631 0 16474 3528 22156 9210 5683 5683 9211 13526 9211 22156v136275c0 8629-3529 16472-9211 22155-5683 5682-13526 9211-22155 9211H31368c-8629 0-16473-3528-22156-9211C3530 184114 2 176272 2 167641V31366c0-8631 3528-16474 9210-22156S22738 0 31369 0zm270601 10811H31367c-5647 0-10785 2315-14513 6043s-6043 8866-6043 14513v136275c0 5646 2315 10784 6043 14512 3729 3729 8867 6044 14513 6044h270601c5645 0 10783-2315 14512-6044 3728-3729 6044-8867 6044-14511V31368c0-5645-2315-10784-6043-14513-3728-3728-8867-6043-14513-6043z" fill="gray" fill-rule="nonzero"/></svg>